<?xml version="1.0" encoding="utf-8"?>
<!-- Generator: Adobe Illustrator 26.5.0, SVG Export Plug-In . SVG Version: 6.00 Build 0)  -->
<svg version="1.1" id="Layer_1" xmlns="http://www.w3.org/2000/svg" xmlns:xlink="http://www.w3.org/1999/xlink" x="0px" y="0px"
	 width="592.34px" height="563.851px" viewBox="0 0 592.34 563.851" enable-background="new 0 0 592.34 563.851"
	 xml:space="preserve">
<g>
	<g>
		<path fill="#8BC34A" d="M562.857,266.041v286.523h-96.311V266.041h-0.163c-0.897-45.727-14.761-83.078-41.591-112.052
			c-27.809-29.861-63.854-44.84-108.218-44.84H29.484V11.287h287.09c70.215,0,128.768,24.933,175.823,74.898
			C538.391,135.067,561.878,194.986,562.857,266.041z"/>
		<polygon fill="#29B6F6" points="365.721,451.102 366.244,552.564 29.484,552.564 29.484,210.399 130.362,210.399 130.362,451.102 
					"/>
		<linearGradient id="SVGID_1_" gradientUnits="userSpaceOnUse" x1="185.3559" y1="295.1804" x2="387.1116" y2="295.1804">
			<stop  offset="0" style="stop-color:#8BC34A"/>
			<stop  offset="1" style="stop-color:#29B6F6"/>
		</linearGradient>
		<path fill="url(#SVGID_1_)" d="M286.234,396.642l-100.878,0l0-101.462h100.878V396.642z M387.112,193.719l-100.878,0V295.18
			h100.878V193.719z"/>
		<line fill="none" x1="129.787" y1="451.627" x2="211.516" y2="369.898"/>
	</g>
</g>
</svg>
