<?xml version="1.0" encoding="utf-8"?>
<!-- Generator: Adobe Illustrator 26.5.0, SVG Export Plug-In . SVG Version: 6.00 Build 0)  -->
<svg version="1.1" id="Layer_1" xmlns="http://www.w3.org/2000/svg" xmlns:xlink="http://www.w3.org/1999/xlink" x="0px" y="0px"
	 width="592.34px" height="563.851px" viewBox="0 0 592.34 563.851" enable-background="new 0 0 592.34 563.851"
	 xml:space="preserve">
<g>
	<g>
		<path fill="#8BC34A" d="M402.922,211.765v114.692H364.37V211.765h-0.065c-0.359-18.304-5.909-33.255-16.648-44.853
			c-11.132-11.953-25.56-17.949-43.318-17.949H189.418V109.79h114.919c28.106,0,51.544,9.98,70.38,29.981
			C393.129,159.337,402.53,183.322,402.922,211.765z"/>
		<polygon fill="#29B6F6" points="324.011,285.843 324.22,326.457 189.418,326.457 189.418,189.492 229.799,189.492 
			229.799,285.843 		"/>
		<linearGradient id="SVGID_1_" gradientUnits="userSpaceOnUse" x1="251.8124" y1="223.4292" x2="332.5731" y2="223.4292">
			<stop  offset="0" style="stop-color:#8BC34A"/>
			<stop  offset="1" style="stop-color:#29B6F6"/>
		</linearGradient>
		<path fill="url(#SVGID_1_)" d="M292.193,264.043h-40.38v-40.614h40.38V264.043z M332.573,182.815h-40.38v40.614h40.38V182.815z"/>
		<line fill="none" x1="229.569" y1="286.053" x2="262.284" y2="253.338"/>
	</g>
	<g>
		<g>
			<path fill="#8BC34A" d="M83.538,371.286c-8.69-9.096-19.507-13.644-32.471-13.644H13.522v17.83h37.545
				c8.186,0,14.849,2.718,19.989,8.164c5.129,5.446,7.693,12.537,7.693,21.271c0,8.734-2.564,15.824-7.693,21.271
				c-5.14,5.446-11.803,8.164-19.989,8.164H32.163v-39.868H13.522v57.698h37.545c12.964,0,23.781-4.548,32.471-13.644
				c8.69-9.085,13.03-20.296,13.03-33.621C96.568,391.582,92.228,380.382,83.538,371.286z"/>
			<path fill="#8BC34A" d="M117.639,376.549c-2.882,0-5.38-1.056-7.495-3.173c-2.116-2.114-3.173-4.612-3.173-7.494
				c0-2.88,1.057-5.402,3.173-7.563c2.115-2.161,4.613-3.241,7.495-3.241c2.971,0,5.514,1.08,7.63,3.241
				c2.114,2.161,3.173,4.683,3.173,7.563c0,2.882-1.059,5.38-3.173,7.494C123.152,375.492,120.61,376.549,117.639,376.549z
				 M108.997,452.171v-67.519h17.42v67.519H108.997z"/>
			<path fill="#8BC34A" d="M179.891,382.761c7.381,0,13.481,2.477,18.298,7.426c4.816,4.953,7.225,11.795,7.225,20.526v41.457
				h-17.419v-39.296c0-4.5-1.216-7.944-3.646-10.33c-2.431-2.385-5.672-3.579-9.723-3.579c-4.502,0-8.102,1.398-10.803,4.187
				c-2.701,2.791-4.051,6.977-4.051,12.559v36.46h-17.42v-67.519h17.42v7.561C164.001,385.914,170.708,382.761,179.891,382.761z"/>
			<path fill="#8BC34A" d="M277.794,443.731c-6.933,6.886-15.394,10.33-25.387,10.33c-9.993,0-18.433-3.444-25.321-10.33
				c-6.886-6.888-10.33-15.327-10.33-25.321c0-9.992,3.444-18.432,10.33-25.319c6.888-6.886,15.327-10.33,25.321-10.33
				c9.993,0,18.454,3.444,25.387,10.33c6.932,6.888,10.398,15.327,10.398,25.319C288.192,428.404,284.726,436.844,277.794,443.731z
				 M239.376,431.78c3.464,3.512,7.809,5.267,13.031,5.267c5.219,0,9.587-1.755,13.099-5.267s5.267-7.968,5.267-13.369
				c0-5.4-1.755-9.858-5.267-13.368c-3.512-3.512-7.879-5.267-13.099-5.267c-5.222,0-9.567,1.755-13.031,5.267
				c-3.467,3.51-5.199,7.968-5.199,13.368C234.177,423.812,235.908,428.268,239.376,431.78z"/>
			<path fill="#8BC34A" d="M342.208,384.652h19.176l-25.658,67.519h-19.851l-25.658-67.519h19.176l16.368,47.253L342.208,384.652z"
				/>
			<path fill="#8BC34A" d="M424.582,443.731c-6.933,6.886-15.394,10.33-25.387,10.33c-9.993,0-18.433-3.444-25.321-10.33
				c-6.886-6.888-10.33-15.327-10.33-25.321c0-9.992,3.444-18.432,10.33-25.319c6.888-6.886,15.327-10.33,25.321-10.33
				c9.993,0,18.454,3.444,25.387,10.33c6.932,6.888,10.398,15.327,10.398,25.319C434.98,428.404,431.514,436.844,424.582,443.731z
				 M386.164,431.78c3.464,3.512,7.809,5.267,13.031,5.267c5.22,0,9.587-1.755,13.099-5.267s5.267-7.968,5.267-13.369
				c0-5.4-1.755-9.858-5.267-13.368c-3.512-3.512-7.879-5.267-13.099-5.267c-5.222,0-9.567,1.755-13.031,5.267
				c-3.467,3.51-5.199,7.968-5.199,13.368C380.965,423.812,382.697,428.268,386.164,431.78z"/>
		</g>
		
			<linearGradient id="SVGID_00000172398223107023097050000002848808953345768592_" gradientUnits="userSpaceOnUse" x1="459.9058" y1="404.9067" x2="578.8182" y2="404.9067">
			<stop  offset="0" style="stop-color:#8BC34A"/>
			<stop  offset="1" style="stop-color:#29B6F6"/>
		</linearGradient>
		<path fill="url(#SVGID_00000172398223107023097050000002848808953345768592_)" d="M459.906,357.644h18.635v94.526h-18.635V357.644
			z M545.467,357.642h-23.089l-33.089,94.529h20.126l5.672-17.017l6.072-17.417l12.962-38.624l13.635,38.624l6.16,17.417
			l6.004,17.017h18.898L545.467,357.642z"/>
	</g>
</g>
</svg>
